<svg fill="none" height="20" viewBox="0 0 20 20" width="20" xmlns="http://www.w3.org/2000/svg"><clipPath id="favorite_outline_20__a"><path d="M0 0h20v20H0z"></path></clipPath><g clip-path="url(#favorite_outline_20__a)"><path clip-rule="evenodd" d="M10.83 3.08a.9.9 0 00-1.66 0L7.74 6.42a1 1 0 01-.77.6l-3.12.44a.9.9 0 00-.44 1.59l2.2 1.77a1 1 0 01.35.96l-.62 3.32a.9.9 0 001.46.86l2.56-2.15a1 1 0 011.28 0l2.56 2.15a.9.9 0 001.46-.86l-.62-3.32a1 1 0 01.35-.96l2.2-1.77a.9.9 0 00-.44-1.6l-3.12-.44a1 1 0 01-.77-.6zM7.79 2.5a2.4 2.4 0 014.42 0l1.31 3.08 2.84.4a2.4 2.4 0 011.17 4.24l-1.96 1.6.57 3.02a2.4 2.4 0 01-3.9 2.28L10 15.23 7.77 17.1a2.4 2.4 0 01-3.9-2.28l.56-3.03-1.96-1.59a2.4 2.4 0 011.17-4.24l2.84-.4z" fill="#5181b8" fill-rule="evenodd"></path></g></svg>